# AST/ASF file generated using VICON BodyLanguage
# -----------------------------------------------
:version 1.10
:name VICON
:units
  mass 1.0
  length 0.45
  angle deg
:documentation
   .ast/.asf automatically generated from VICON data using
   VICON BodyBuilder and BodyLanguage model FoxedUp or BRILLIANT.MOD
:root
   order TX TY TZ RX RY RZ
   axis XYZ
   position 0 0 0  
   orientation 0 0 0 
:bonedata
  begin
     id 1 
     name lhipjoint
     direction 0.611804 -0.747784 0.257906 
     length 2.29243 
     axis 0 0 0  XYZ
  end
  begin
     id 2 
     name lfemur
     direction 0.34202 -0.939693 0  
     length 7.31159  
     axis 0 0 20  XYZ
    dof rx ry rz
    limits (-160.0 20.0)
           (-70.0 70.0)
           (-60.0 70.0)
  end
  begin
     id 3 
     name ltibia
     direction 0.34202 -0.939693 0   
     length 7.33391   
     axis 0 0 20   XYZ
    dof rx
    limits (-10.0 170.0)
  end
  begin
     id 4 
     name lfoot
     direction 0.122263 -0.335914 0.933924   
     length 1.76083   
     axis -90 7.62852e-016 20   XYZ
    dof rx rz
    limits (-45.0 90.0)
           (-70.0 20.0)
  end
  begin
     id 5 
     name ltoes
     direction 1.53533e-011 -4.2177e-011 1   
     length 0.879206   
     axis -90 7.62852e-016 20   XYZ
    dof rx
    limits (-90.0 20.0)
  end
  begin
     id 6 
     name rhipjoint
     direction -0.646469 -0.721248 0.248754   
     length 2.37677  
     axis 0 0 0  XYZ 
  end
  begin
     id 7 
     name rfemur
     direction -0.34202 -0.939693 0   
     length 7.18623   
     axis 0 0 -20   XYZ
    dof rx ry rz
    limits (-160.0 20.0)
           (-70.0 70.0)
           (-70.0 60.0)
  end
  begin
     id 8 
     name rtibia
     direction -0.34202 -0.939693 0   
     length 7.36567   
     axis 0 0 -20   XYZ
    dof rx
    limits (-10.0 170.0)
 end
 begin
     id 9 
     name rfoot
     direction -0.126681 -0.348054 0.928876   
     length 1.71902  
     axis -90 -7.62852e-016 -20   XYZ
    dof rx rz
    limits (-45.0 90.0)
           (-20.0 70.0)
  end
  begin
     id 10 
     name rtoes
     direction -1.53551e-011 -4.21898e-011 1   
     length 0.857792   
     axis -90 -7.62852e-016 -20   XYZ
    dof rx
    limits (-90.0 20.0)
  end
  begin
     id 11 
     name lowerback
     direction 0.0106509 0.999778 0.0181844   
     length 2.07668   
     axis 0 0 0   XYZ
    dof rx ry rz
    limits (-20.0 45.0)
           (-30.0 30.0)
           (-30.0 30.0)
  end
  begin
     id 12 
     name upperback
     direction -0.00456018 0.999989 -0.000590935   
     length 2.08011   
     axis 0 0 0   XYZ
    dof rx ry rz
    limits (-20.0 45.0)
           (-30.0 30.0)
           (-30.0 30.0)
  end
  begin
     id 13 
     name thorax
     direction -0.00910382 0.999916 -0.00923765   
     length 2.07397   
     axis 0 0 0   XYZ
    dof rx ry rz
    limits (-20.0 45.0)
           (-30.0 30.0)
           (-30.0 30.0)
  end
  begin
     id 14 
     name lowerneck
     direction 0.00171967 0.99778 0.0665733   
     length 1.67556   
     axis 0 0 0   XYZ
    dof rx ry rz
    limits (-20.0 45.0)
           (-30.0 30.0)
           (-30.0 30.0)
  end
  begin
     id 15 
     name upperneck
     direction -0.0143166 0.991302 -0.130828   
     length 1.68462   
     axis 0 0 0   XYZ
    dof rx ry rz
    limits (-20.0 45.0)
           (-30.0 30.0)
           (-30.0 30.0)
  end
  begin
     id 16
     name head
     direction -0.00606378 0.998665 -0.0512995  
     length 1.69269  
     axis 0 0 0   XYZ
    dof rx ry rz
    limits (-20.0 45.0)
           (-30.0 30.0)
           (-30.0 30.0)
  end
  begin
     id 17 
     name lclavicle
     direction 0.9638 0.179341 0.197297  
     length 4.12888  
     axis 0 0 0   XYZ
    dof ry rz
    limits (-20.0 10.0)
           (0.0 20.0)
  end
  begin
     id 18 
     name lhumerus
     direction 1 -4.48972e-011 -2.47351e-027   
     length 5.01834   
     axis -180 -30 -90   XYZ
    dof rx ry rz
    limits (-60.0 90.0)
           (-90.0 90.0)
           (-90.0 90.0)
  end
  begin
     id 19
     name lradius
     direction 1 -4.48965e-011 1.51591e-026   
     length 3.4869   
     axis -180 -30 -90   XYZ
    dof rx
    limits (-10.0 170.0)
  end
  begin
     id 20
     name lwrist
     direction 1 -4.48957e-011 2.70032e-026   
     length 1.74345   
     axis -1.81515e-014 90 90   XYZ
    dof ry
    limits (-180.0 0.0)
 end
  begin
     id 21 
     name lhand
     direction 1 -4.48951e-011 5.40064e-026   
     length 0.76799   
     axis -3.44607e-014 90 90   XYZ
    dof rx rz
    limits (-90.0 90.0)
           (-45.0 45.0)
  end
  begin
     id 22 
     name lfingers
     direction 1 -4.48971e-011 1.08013e-025   
     length 0.619174   
     axis -6.89214e-014 90 90   XYZ
    dof rx
    limits (0.0 90.0)
  end
  begin
     id 23
     name lthumb
     direction 0.707107 -6.34931e-011 0.707107   
     length 0.889013   
     axis -90 45 2.85299e-015   XYZ
    dof rx rz
    limits (-45.0 45.0)
           (-45.0 45.0)
  end
  begin
     id 24 
     name rclavicle
     direction -0.961409 0.252588 0.109054   
     length 4.04305  
     axis 0 0 0   XYZ 
    dof ry rz
    limits (-10.0 20.0)
           (-20.0 0.0)
  end
  begin
     id 25 
     name rhumerus
     direction -1 -4.4897e-011 1.33872e-017  
     length 4.70164   
     axis -180 30 90   XYZ
    dof rx ry rz
    limits (-90.0 60.0)
           (-90.0 90.0)
           (-90.0 90.0)
  end
  begin
     id 26 
     name rradius
     direction -1 -4.48954e-011 1.83844e-026   
     length 3.49911   
     axis -180 30 90   XYZ
    dof rx
    limits (-10.0 170.0)
  end
  begin
     id 27 
     name rwrist
     direction -1 -4.49008e-011 2.70032e-026   
     length 1.74955   
     axis -1.81515e-014 -90 -90   XYZ
    dof ry
    limits (-180.0 0.0)
  end
  begin
     id 28
     name rhand
     direction -1 -4.48916e-011 5.40064e-026   
     length 0.739335   
     axis -3.44607e-014 -90 -90   XYZ
    dof rx rz
    limits (-90.0 90.0)
           (-45.0 45.0)
  end
  begin
     id 29
     name rfingers
     direction -1 -4.48987e-011 1.08013e-025   
     length 0.596071   
     axis -6.89214e-014 -90 -90   XYZ
    dof rx
    limits (0.0 90.0)
  end
  begin
     id 30
     name rthumb
     direction -0.707107 -6.34935e-011 0.707107   
     length 0.855843   
     axis -90 -45 -2.85299e-015   XYZ
    dof rx rz
    limits (-45.0 45.0)
           (-45.0 45.0)
  end
:hierarchy
  begin
    root lhipjoint rhipjoint lowerback
    lhipjoint lfemur
    lfemur ltibia
    ltibia lfoot
    lfoot ltoes
    rhipjoint rfemur
    rfemur rtibia
    rtibia rfoot
    rfoot rtoes
    lowerback upperback
    upperback thorax
    thorax lowerneck lclavicle rclavicle
    lowerneck upperneck
    upperneck head
    lclavicle lhumerus
    lhumerus lradius
    lradius lwrist
    lwrist lhand lthumb
    lhand lfingers
    rclavicle rhumerus
    rhumerus rradius
    rradius rwrist
    rwrist rhand rthumb
    rhand rfingers
  end

#!OML:ASF I:\salsa\salsa 7_09\Patient 1\Session 1\dancermale.ASF
:FULLY-SPECIFIED
:DEGREES
1070
root 2.42722 16.7441 1.16334 -1260.51 -98.364 902.936
lowerback 178.402 -180.526 -179.883
upperback -1.44163 0.689452 -0.190785
thorax -0.575835 0.338598 -0.253198
lowerneck -7.10688 -0.859911 1.44956
upperneck 9.65692 -0.960118 -3.86634
head 4.45667 -0.636876 -1.63344
rclavicle 1.18122e-014 -1.06847e-015
rhumerus -6.92492 3.88641 -86.5084
rradius 55.4356
rwrist 14.332
rhand -40.1497 -8.0065
rfingers 7.12502
rthumb -13.1121 -37.5743
lclavicle 1.18122e-014 -1.06847e-015
lhumerus -5.29881 -1.51752 89.9031
lradius 58.9401
lwrist 53.3882
lhand -18.9555 52.9236
lfingers 7.12502
lthumb 7.34815 -277.224
rfemur -33.4963 -12.0765 20.6248
rtibia 71.6102
rfoot -12.9278 -7.96364
rtoes -0.167373
lfemur -31.7092 9.36221 -27.2429
ltibia 32.0237
lfoot -3.69389 -0.330256
ltoes 4.37933
1071
root 2.43289 16.754 1.17218 -1261.27 -98.5265 903.677
lowerback 178.416 -180.671 -180.042
upperback -1.36927 0.885047 -0.195781
thorax -0.510961 0.438074 -0.167039
lowerneck -7.04235 -1.05636 1.23741
upperneck 9.61505 -1.2333 -3.54719
head 4.41998 -0.761761 -1.4998
rclavicle 2.4004e-014 3.00662e-015
rhumerus -5.68459 3.48698 -84.5369
rradius 54.3728
rwrist 14.213
rhand -39.6252 -7.42654
rfingers 7.12502
rthumb -12.6065 -37.0262
lclavicle 2.4004e-014 3.00662e-015
lhumerus -7.51767 -2.91422 91.1844
lradius 62.1774
lwrist 53.0404
lhand -19.4902 53.0966
lfingers 7.12502
lthumb 6.83195 -277.034
rfemur -33.1964 -11.3991 20.8349
rtibia 70.9036
rfoot -10.8267 -6.95319
rtoes 1.66836
lfemur -31.4652 9.47051 -27.4473
ltibia 31.5486
lfoot -3.35465 -0.711432
ltoes 4.81605
1072
root 2.45297 16.766 1.17933 -1260.93 -98.7747 903.608
lowerback 178.173 -180.823 -180.015
upperback -1.37279 1.08767 -0.21953
thorax -0.376968 0.53891 -0.20047
lowerneck -6.94058 -1.30916 0.987764
upperneck 9.5469 -1.58683 -3.14539
head 4.36673 -0.923093 -1.33534
rclavicle -9.28115e-015 1.88845e-015
rhumerus -4.49536 2.41552 -82.8459
rradius 53.2324
rwrist 15.1927
rhand -39.1086 -7.11423
rfingers 7.12502
rthumb -12.1084 -36.7439
lclavicle -9.28115e-015 1.88845e-015
lhumerus -9.57699 -4.37533 92.3345
lradius 65.345
lwrist 52.7611
lhand -19.7655 52.753
lfingers 7.12502
lthumb 6.5662 -277.369
rfemur -32.9711 -10.6445 21.1448
rtibia 69.6429
rfoot -8.64236 -7.00181
rtoes 6.05328
lfemur -31.6778 9.39273 -27.5696
ltibia 31.1675
lfoot -2.85693 -1.01241
ltoes 5.11589
1073
root 2.47797 16.7821 1.18249 -1260.52 -99.1081 903.352
lowerback 178.023 -180.96 -179.91
upperback -1.35099 1.26793 -0.286713
thorax -0.266538 0.628155 -0.322109
lowerneck -6.91385 -1.56881 0.839796
upperneck 9.59973 -1.94605 -2.87984
head 4.37404 -1.09215 -1.23973
rclavicle 4.96294e-014 1.19271e-015
rhumerus -3.39126 1.58313 -81.2134
rradius 51.96
rwrist 16.744
rhand -38.8601 -7.6349
rfingers 7.12502
rthumb -11.8688 -37.2785
lclavicle 4.96294e-014 1.19271e-015
lhumerus -11.6186 -5.84719 93.3456
lradius 68.6147
lwrist 52.8303
lhand -19.2623 53.2477
lfingers 7.12502
lthumb 7.05197 -276.89
rfemur -32.1841 -9.9552 21.3441
rtibia 67.7233
rfoot -8.4441 -7.55265
rtoes 11.7914
lfemur -31.6843 9.3198 -27.629
ltibia 30.6347
lfoot -2.31482 -1.38448
ltoes 4.90795
1074
root 2.50662 16.8029 1.17991 -1259.49 -99.4045 902.328
lowerback 178.033 -181.099 -179.704
upperback -1.33036 1.45051 -0.307252
thorax -0.244328 0.718322 -0.455039
lowerneck -6.91857 -1.80979 0.673369
upperneck 9.79411 -2.27604 -2.63415
head 4.44174 -1.24996 -1.14926
rclavicle 2.55607e-014 5.75854e-015
rhumerus -2.40899 1.53293 -79.4881
rradius 50.7099
rwrist 17.3904
rhand -38.9903 -8.84739
rfingers 7.12502
rthumb -11.9943 -38.4837
lclavicle 2.55607e-014 5.75854e-015
lhumerus -13.8524 -7.22335 94.2687
lradius 72.1439
lwrist 53.1875
lhand -21.3358 53.518
lfingers 7.12502
lthumb 5.0501 -276.562
rfemur -30.7623 -9.2745 21.605
rtibia 65.2911
rfoot -8.47013 -7.64247
rtoes 16.3168
lfemur -31.4363 9.41588 -27.4819
ltibia 29.9243
lfoot -1.7345 -1.8268
ltoes 4.08883
1075
root 2.55155 16.8298 1.17935 -1258.83 -99.7641 901.875
lowerback 177.87 -181.209 -179.51
upperback -1.30784 1.59456 -0.348688
thorax -0.122186 0.789435 -0.599216
lowerneck -6.95263 -2.04097 0.445342
upperneck 9.89651 -2.59051 -2.35055
head 4.48556 -1.39952 -1.03323
rclavicle -2.10256e-014 -1.11816e-015
rhumerus -1.29813 0.871654 -78.0362
rradius 49.5074
rwrist 17.6368
rhand -38.8287 -8.88204
rfingers 7.12502
rthumb -11.8385 -38.5274
lclavicle -2.10256e-014 -1.11816e-015
lhumerus -16.0263 -8.5495 95.0591
lradius 75.9822
lwrist 53.8107
lhand -21.332 52.7748
lfingers 7.12502
lthumb 5.05382 -277.305
rfemur -29.3146 -8.87511 21.7236
rtibia 62.7376
rfoot -10.1024 -8.40619
rtoes 10.0947
lfemur -31.4531 9.31219 -27.4834
ltibia 29.2242
lfoot -0.987509 -2.20954
ltoes 3.00027
1076
root 2.61164 16.8651 1.17978 -1259 -100.152 902.4
lowerback 177.693 -181.292 -179.389
upperback -1.32994 1.70129 -0.47311
thorax -0.0369732 0.841706 -0.788139
lowerneck -6.91592 -2.24762 0.274342
upperneck 9.87725 -2.87289 -2.12728
head 4.47173 -1.5331 -0.942705
rclavicle -1.25153e-015 -1.49089e-015
rhumerus -0.308372 -0.476078 -77.0826
rradius 48.5159
rwrist 18.6796
rhand -38.0464 -9.01414
rfingers 7.12502
rthumb -11.084 -38.7015
lclavicle -1.25153e-015 -1.49089e-015
lhumerus -18.1724 -9.59258 95.6006
lradius 79.972
lwrist 54.0667
lhand -23.0766 52.6041
lfingers 7.12502
lthumb 3.36909 -277.443
rfemur -27.9633 -8.75066 21.5893
rtibia 60.016
rfoot -11.8314 -9.07016
rtoes 4.57303
lfemur -31.6901 9.1153 -27.6722
ltibia 28.584
lfoot -0.136318 -2.61345
ltoes 1.62422
1077
root 2.67971 16.9063 1.17665 -1258.58 -100.576 902.334
lowerback 177.654 -181.371 -179.125
upperback -1.43007 1.80034 -0.631573
thorax -0.102651 0.888056 -1.09605
lowerneck -6.85231 -2.4673 0.214669
upperneck 9.86334 -3.18627 -1.89616
head 4.45371 -1.67735 -0.870872
rclavicle -2.61681e-016 -3.52843e-015
rhumerus 0.464529 -1.80251 -76.3482
rradius 47.6457
rwrist 19.5933
rhand -37.2823 -8.90025
rfingers 7.12502
rthumb -10.347 -38.6257
lclavicle -2.61681e-016 -3.52843e-015
lhumerus -20.2595 -10.4588 95.8076
lradius 83.9491
lwrist 54.152
lhand -23.6656 52.1656
lfingers 7.12502
lthumb 2.80033 -277.873
rfemur -26.6446 -8.71932 21.5528
rtibia 56.9712
rfoot -13.2557 -9.66867
rtoes 1.61043
lfemur -32.0254 8.9427 -27.648
ltibia 28.0232
lfoot 0.768029 -3.09778
ltoes 0.21817
1078
root 2.75664 16.9535 1.16726 -1257.01 -101.003 901.171
lowerback 177.626 -181.476 -178.686
upperback -1.55971 1.9298 -0.746687
thorax -0.198483 0.947685 -1.45782
lowerneck -6.84456 -2.72672 0.295798
upperneck 9.81639 -3.55857 -1.75321
head 4.43119 -1.84965 -0.857773
rclavicle -8.63626e-015 6.65929e-015
rhumerus 1.0885 -3.02295 -75.7093
rradius 46.8835
rwrist 20.3372
rhand -36.9038 -8.77416
rfingers 7.12502
rthumb -9.9818 -38.5175
lclavicle -8.63626e-015 6.65929e-015
lhumerus -21.8872 -11.3374 95.6983
lradius 87.7711
lwrist 54.5509
lhand -23.984 51.92
lfingers 7.12502
lthumb 2.49281 -278.115
rfemur -25.5077 -8.53757 21.8269
rtibia 53.8069
rfoot -14.3253 -10.3547
rtoes 0.109654
lfemur -32.5738 8.61246 -27.2067
ltibia 27.614
lfoot 1.55614 -3.38882
ltoes -2.01199
